<svg width="88" height="40" viewBox="0 0 88 40" fill="none" xmlns="http://www.w3.org/2000/svg">
<g id="Parallax">
<g id="Frame 2131330467" data-figma-bg-blur-radius="24">
<g id="Layer_1" clip-path="url(#clip1_0_1)">
<path id="Vector" d="M55 19.875C54.9901 22.8888 53.7885 25.7763 51.6574 27.9074C49.5263 30.0385 46.6388 31.2401 43.625 31.25H39.25V26.25H43.625C45.3158 26.25 46.9373 25.5784 48.1328 24.3828C49.3284 23.1873 50 21.5658 50 19.875C50 18.1842 49.3284 16.5627 48.1328 15.3672C46.9373 14.1716 45.3158 13.5 43.625 13.5H39.25V8.5H43.625C46.6388 8.50989 49.5263 9.7115 51.6574 11.8426C53.7885 13.9737 54.9901 16.8612 55 19.875ZM30.75 8.5V17.75H22.875L20 22.75H35.75V8.5H30.75ZM87.5 15.625C87.5 19.769 85.8538 23.7433 82.9235 26.6735C79.9933 29.6038 76.019 31.25 71.875 31.25V39.75H58.375V33.125C56.5174 35.2334 54.227 36.9166 51.6601 38.0599C49.0931 39.2032 46.3099 39.7796 43.5 39.75H30.75V31.25H20.75L15.75 39.75H0L23.125 0H43.625C46.4264 0.0236997 49.193 0.624168 51.7522 1.76398C54.3114 2.90379 56.6084 4.55851 58.5 6.625V0H72C76.1244 0.0264333 80.0704 1.68509 82.9751 4.6132C85.8798 7.54131 87.5067 11.5006 87.5 15.625ZM43.625 34.75C46.4492 34.7569 49.2173 33.9618 51.6072 32.457C53.9971 30.9522 55.9106 28.7997 57.125 26.25H63.5V34.75H67V26.25H72C73.3958 26.2516 74.7781 25.9779 76.068 25.4446C77.3578 24.9112 78.5297 24.1286 79.5167 23.1417C80.5036 22.1547 81.2862 20.9828 81.8196 19.693C82.3529 18.4031 82.6266 17.0208 82.625 15.625C82.5986 12.7936 81.4536 10.0875 79.4397 8.09703C77.4258 6.10657 74.7065 4.99328 71.875 5H63.375V17.75H58.375C57.8389 14.2159 56.0583 10.9894 53.354 8.65177C50.6497 6.31416 47.1995 5.01914 43.625 5H26.125L8.75 34.75H12.875L17.875 26.25H35.75V34.75H43.625ZM71.875 8.5H66.875V13.5H71.875C72.1545 13.4983 72.4316 13.5522 72.6902 13.6584C72.9487 13.7646 73.1836 13.921 73.3813 14.1187C73.579 14.3164 73.7354 14.5513 73.8416 14.8098C73.9478 15.0684 74.0017 15.3455 74 15.625C73.9843 16.1836 73.7553 16.715 73.3602 17.1102C72.965 17.5053 72.4336 17.7343 71.875 17.75H66.875V22.75H71.875C73.7647 22.75 75.5769 21.9993 76.9131 20.6631C78.2493 19.3269 79 17.5147 79 15.625C78.9805 13.7414 78.2235 11.9404 76.8916 10.6084C75.5596 9.27646 73.7586 8.51952 71.875 8.5Z" fill="#D0271D"/>
<path id="Vector_2" d="M78.875 37.25C78.875 37.6456 78.7577 38.0322 78.5379 38.3611C78.3182 38.69 78.0058 38.9464 77.6404 39.0978C77.2749 39.2491 76.8728 39.2887 76.4848 39.2116C76.0969 39.1344 75.7405 38.9439 75.4608 38.6642C75.1811 38.3845 74.9906 38.0281 74.9134 37.6402C74.8363 37.2522 74.8759 36.8501 75.0272 36.4846C75.1786 36.1192 75.435 35.8068 75.7639 35.5871C76.0928 35.3673 76.4794 35.25 76.875 35.25C77.1386 35.2466 77.4002 35.2961 77.6443 35.3954C77.8885 35.4947 78.1103 35.6419 78.2967 35.8283C78.4831 36.0147 78.6303 36.2365 78.7296 36.4807C78.8289 36.7248 78.8784 36.9864 78.875 37.25ZM79.375 37.25C79.375 36.7555 79.2284 36.2722 78.9537 35.8611C78.679 35.45 78.2885 35.1295 77.8317 34.9403C77.3749 34.7511 76.8722 34.7016 76.3873 34.798C75.9023 34.8945 75.4569 35.1326 75.1072 35.4822C74.7576 35.8319 74.5195 36.2773 74.423 36.7623C74.3266 37.2472 74.3761 37.7499 74.5653 38.2067C74.7545 38.6635 75.075 39.054 75.4861 39.3287C75.8972 39.6034 76.3805 39.75 76.875 39.75C77.538 39.75 78.1739 39.4866 78.6428 39.0178C79.1116 38.5489 79.375 37.913 79.375 37.25Z" fill="#D0271D"/>
<path id="Vector_3" d="M77 36.125C77.1326 36.125 77.2598 36.1777 77.3536 36.2714C77.4473 36.3652 77.5 36.4924 77.5 36.625C77.5 36.7576 77.4473 36.8848 77.3536 36.9786C77.2598 37.0723 77.1326 37.125 77 37.125H76.5V36.125H77ZM77.625 36C77.4542 35.8432 77.2319 35.7543 77 35.75H76V38.75H76.375V37.625H76.875L77.5 38.75H78L77.25 37.5C77.375 37.5 77.5 37.375 77.625 37.25C77.7244 37.1033 77.7687 36.9262 77.75 36.75C77.8036 36.6262 77.8204 36.4896 77.7982 36.3565C77.776 36.2235 77.7159 36.0997 77.625 36Z" fill="#D0271D"/>
</g>
</g>
</g>
<defs>
<clipPath id="bgblur_0_0_1_clip_path" transform="translate(40 40)"><rect x="-16" y="-16" width="120" height="72" rx="20"/>
</clipPath><clipPath id="clip1_0_1">
<rect width="88" height="40" fill="white"/>
</clipPath>
</defs>
</svg>
