<svg width="260" height="26" viewBox="0 0 260 26" fill="none" xmlns="http://www.w3.org/2000/svg">
<g id="Parallax">
<g id="Frame 2131330464" data-figma-bg-blur-radius="24">
<g id="Bank_of_America_idZSNC7EK__0 1" clip-path="url(#clip1_0_1)">
<path id="Vector" d="M239.996 24.9169C239.996 24.3399 240.466 23.8711 241.079 23.8711C241.693 23.8711 242.163 24.3399 242.163 24.9169C242.163 25.4938 241.693 25.9987 241.079 25.9987C240.466 25.9987 239.996 25.5299 239.996 24.9169ZM240.213 24.9169C240.213 25.3857 240.61 25.7823 241.116 25.7823C241.585 25.7823 241.982 25.4217 241.982 24.9169C241.982 24.4481 241.585 24.0875 241.116 24.0875C240.574 24.0875 240.213 24.4841 240.213 24.9169Z" fill="#E31837"/>
<path id="Vector_2" d="M241.619 25.5299H241.402L241.041 24.9889H240.824V25.5299H240.68V24.3398H241.221C241.33 24.3398 241.438 24.3398 241.51 24.412C241.619 24.448 241.655 24.5562 241.655 24.6644C241.655 24.8808 241.474 24.9889 241.257 24.9889L241.619 25.5299ZM241.041 24.8447C241.221 24.8447 241.438 24.8808 241.438 24.6644C241.438 24.5201 241.294 24.4841 241.149 24.4841H240.824V24.8447H241.041Z" fill="#E31837"/>
<path id="Vector_3" d="M235.916 25.9986C243.499 19.5076 254.152 13.1969 260.002 10.9251C259.099 10.3481 257.691 9.51871 256.102 8.61719C248.554 11.1054 239.743 16.6227 231.871 22.8613C233.207 23.871 234.616 24.9168 235.916 25.9986Z" fill="#E31837"/>
<path id="Vector_4" d="M232.447 8.36522C231.328 7.82431 230.1 7.31945 229.161 6.88672C226.308 8.2931 222.589 10.4207 217.895 13.7744C218.906 14.3153 219.989 14.9644 221.145 15.6135C224.756 12.945 228.403 10.4207 232.447 8.36522Z" fill="#012169"/>
<path id="Vector_5" d="M239.199 5.26593C237.827 4.50865 233.06 2.74166 229.774 1.98438C228.799 2.34499 227.427 2.8859 226.488 3.28257C227.68 3.60712 232.122 4.79714 235.913 6.70837C236.888 6.23958 238.261 5.6626 239.199 5.26593Z" fill="#E31837"/>
<path id="Vector_6" d="M223.059 4.79688C218.834 6.74417 214.392 9.41269 211.973 10.9633C212.839 11.36 213.706 11.6845 214.898 12.2615C220.242 8.6554 224.431 6.45568 226.092 5.73446C224.9 5.30173 223.781 5.01324 223.059 4.79688Z" fill="#012169"/>
<path id="Vector_7" d="M242.377 4.14702C243.352 3.82247 244.471 3.53398 245.446 3.24549C242.63 2.05548 239.091 0.793343 235.913 0C235.408 0.144244 233.891 0.540915 232.844 0.865465C233.927 1.19001 237.502 2.01942 242.377 4.14702ZM224.574 17.706C225.73 18.3911 226.958 19.3287 228.149 20.1221C236.058 13.9917 243.858 9.26768 252.416 6.59917C251.224 5.98613 250.177 5.44521 248.841 4.79612C243.713 6.09431 234.938 9.59223 224.574 17.706Z" fill="#E31837"/>
<path id="Vector_8" d="M0 24.1244H5.77778C8.70278 24.1244 10.075 22.6099 10.075 20.4823C10.075 18.7514 9.17222 17.5974 7.29444 17.2368C8.95556 16.8401 9.71389 15.8304 9.71389 14.3519C9.71389 12.4767 8.34167 10.9622 5.41667 10.9622H0.0361111V24.1244H0ZM5.01944 18.535C6.10278 18.535 6.86111 19.0759 6.86111 20.1577C6.86111 21.3117 6.13889 21.7805 5.01944 21.7805H3.14167V18.4989H5.01944V18.535ZM4.65833 13.2701C5.74167 13.2701 6.5 13.7389 6.5 14.8207C6.5 15.9025 5.77778 16.3713 4.65833 16.3713H3.14167V13.2701H4.65833ZM21.7389 10.9261H18.4889L13.5417 24.1244H16.8278L17.7306 21.3838H22.4972L23.4 24.1244H26.7222L21.7389 10.9261ZM20.1139 14.0995L21.6667 18.9677H18.4889L20.1139 14.0995ZM43.1889 10.9261H40.1917V19.7611L34.5583 10.9261H31.2V24.1244H34.1972V15.3256L39.8306 24.1244H43.1889V10.9261ZM57.0194 24.1244L52.6861 17.4171V24.1244H49.4722V10.9261H52.6861V17.2729L56.8028 10.9261H60.3778L56.0444 17.2729L60.775 24.1244H57.0194ZM72.15 17.5253C72.15 20.1577 73.7389 21.7805 75.7972 21.7805C77.8556 21.7805 79.4444 20.1577 79.4444 17.5253C79.4444 14.8928 77.8556 13.2701 75.7972 13.2701C73.7389 13.2701 72.15 14.8928 72.15 17.5253ZM68.7556 17.5253C68.7917 13.6667 71.5 10.6376 75.7972 10.6376C80.0944 10.6376 82.8028 13.6667 82.8389 17.5253C82.8028 21.3838 80.0944 24.4129 75.7972 24.4129C71.5 24.4129 68.7917 21.3838 68.7556 17.5253ZM87.2444 24.1244H90.4583V18.9317H94.6472V16.4074H90.4583V13.4504H95.5139L96.0917 10.9261H87.2444V24.1244ZM111.078 10.9261H107.828L102.881 24.1244H106.167L107.069 21.3838H111.836L112.739 24.1244H116.061L111.078 10.9261ZM109.453 14.0995L111.006 18.9677H107.828L109.453 14.0995ZM135.128 10.9261H131.372L127.942 18.0662L124.511 10.9261H120.756V24.1244H123.644V15.2895L127.906 24.1244L132.167 15.2895V24.1244H135.164L135.128 10.9261ZM141.375 24.1244H150.403V21.6002H144.589V18.6432H149.175V16.191H144.589V13.4504H149.897L150.475 10.9261H141.375V24.1244ZM162.644 24.1244H166.147L162.861 18.535C164.667 18.0301 165.533 16.768 165.533 14.9289C165.533 12.5489 164.089 10.9622 160.839 10.9622H155.747V24.1605H158.889V18.9677H159.756L162.644 24.1244ZM160.225 13.3783C161.561 13.3783 162.247 13.9552 162.247 15.0731C162.247 16.191 161.561 16.768 160.225 16.768H158.853V13.3783H160.225ZM170.95 24.1244H174.164V10.9622H170.95V24.1244ZM189.981 20.5905C188.753 21.4559 187.669 21.7444 186.55 21.7444C184.094 21.7444 182.361 20.0496 182.361 17.5253C182.361 15.001 184.058 13.3061 186.442 13.3061C187.525 13.3061 188.608 13.5946 189.8 14.4601V11.467C188.717 10.854 187.453 10.6016 186.044 10.6016C181.675 10.6016 178.931 13.6307 178.894 17.4892C178.931 21.3838 181.603 24.3769 186.044 24.3769C187.525 24.3769 188.789 24.1244 189.944 23.5114V20.5905H189.981ZM201.753 10.9261H198.503L193.556 24.1244H196.842L197.744 21.3838H202.511L203.414 24.1244H206.736L201.753 10.9261ZM200.128 14.0995L201.681 18.9677H198.503L200.128 14.0995Z" fill="#012169"/>
</g>
</g>
</g>
<defs>
<clipPath id="bgblur_0_0_1_clip_path" transform="translate(44 40)"><rect x="-20" y="-16" width="296" height="66" rx="20"/>
</clipPath><clipPath id="clip1_0_1">
<rect width="260" height="26" fill="white"/>
</clipPath>
</defs>
</svg>
