<svg width="183" height="40" viewBox="0 0 183 40" fill="none" xmlns="http://www.w3.org/2000/svg">
<g id="Parallax">
<g id="Frame 2131330461" data-figma-bg-blur-radius="24">
<g id="idD6MElyMu_1781010930421 1" clip-path="url(#clip1_0_1)">
<g id="Group">
<path id="Vector" d="M72.8043 15.4786C72.6159 15.5718 72.4276 15.5718 72.2392 15.5718C72.0508 15.5718 71.8624 15.3853 71.7683 15.2921C71.2032 14.5462 70.4497 13.8935 69.602 13.4273C68.7544 12.9611 67.8125 12.7746 66.7765 12.7746C63.0091 12.7746 60.6545 15.7583 60.6545 19.9541C60.6545 24.1499 63.0091 27.2268 66.7765 27.2268C67.7183 27.2268 68.7544 27.0403 69.602 26.5741C70.4497 26.1079 71.2032 25.4553 71.7683 24.6161C71.8624 24.4296 72.0508 24.3364 72.2392 24.3364C72.4276 24.3364 72.6159 24.3364 72.8043 24.4296L74.5938 25.4553C74.688 25.5485 74.7822 25.5485 74.8763 25.6417C74.9705 25.735 74.9705 25.8282 75.0647 25.9215C75.0647 26.0147 75.0647 26.1079 75.0647 26.2012C75.0647 26.2944 74.9705 26.3877 74.9705 26.4809C74.1229 27.7863 72.8985 28.8119 71.4857 29.5578C70.073 30.3038 68.4718 30.5835 66.9649 30.5835C60.9371 30.5835 56.793 26.2012 56.793 19.9541C56.793 13.707 60.9371 9.41797 66.8707 9.41797C68.3776 9.41797 69.9788 9.69769 71.3915 10.3504C72.8043 11.0031 74.0287 12.0287 74.8763 13.3341C74.9705 13.4273 74.9705 13.5205 74.9705 13.6138C74.9705 13.707 74.9705 13.8003 74.9705 13.8935C74.9705 13.9867 74.8763 14.08 74.8763 14.1732C74.7822 14.2665 74.7822 14.3597 74.688 14.3597L72.8043 15.4786Z" fill="#00D54B"/>
<path id="Vector_2" d="M86.0838 29.5556V28.7165C85.142 29.9286 83.8234 30.6745 81.6571 30.6745C78.549 30.6745 76.3828 28.9962 76.3828 26.0125C76.3828 22.2829 79.6793 21.6302 81.7513 21.3505C83.9176 21.0708 85.8012 20.8843 85.8012 19.4857C85.8012 18.1804 84.2943 17.9006 83.0699 17.9006C81.6571 17.9006 80.2444 18.2736 78.9258 18.9263C78.8316 19.0195 78.7374 19.0195 78.6432 19.0195C78.5491 19.0195 78.4549 19.0195 78.3607 19.0195C78.2665 19.0195 78.1723 18.9263 78.0781 18.833C77.9839 18.7398 77.9839 18.6466 77.8898 18.5533L77.2305 17.248C77.2305 16.9682 77.2305 16.7817 77.2305 16.5953C77.3247 16.4088 77.4188 16.2223 77.6072 16.1291C79.3967 15.1967 81.3746 14.7305 83.4466 14.7305C87.0256 14.7305 89.5686 16.2223 89.5686 19.7654V29.5556C89.5686 29.7421 89.4744 29.9286 89.3802 30.1151C89.1919 30.3016 89.0035 30.3016 88.8151 30.3016H86.8373C86.7431 30.3016 86.6489 30.3016 86.5547 30.2083C86.4605 30.2083 86.3663 30.1151 86.2722 30.0218C86.178 29.9286 86.178 29.8354 86.0838 29.7421C86.0838 29.7421 86.0838 29.6489 86.0838 29.5556ZM85.8012 22.7491C85.1419 23.3086 83.8234 23.4018 82.5048 23.6815C81.1862 23.9612 79.9618 24.241 79.9618 25.7328C79.9618 27.0382 80.9037 27.6908 82.4106 27.6908C84.2001 27.6908 85.8012 26.7584 85.8012 24.4274V22.7491Z" fill="#00D54B"/>
<path id="Vector_3" d="M92.7717 26.3855C92.8659 26.199 93.0543 26.1058 93.2426 26.1058C93.431 26.1058 93.6194 26.1058 93.8077 26.2922C95.0321 27.2246 96.6333 27.6908 98.2344 27.6908C99.8355 27.6908 101.06 27.1314 101.06 25.9193C101.06 24.8004 99.9297 24.5207 97.2926 24.0545C94.467 23.5883 91.7357 22.6559 91.7357 19.4857C91.7357 16.1291 94.6554 14.7305 97.9518 14.7305C100.024 14.7305 102.096 15.3831 103.697 16.5953C103.791 16.6885 103.885 16.7818 103.885 16.7818C103.98 16.875 103.98 16.9682 103.98 17.0615C103.98 17.1547 103.98 17.248 103.98 17.3412C103.98 17.4344 103.885 17.5277 103.791 17.6209L102.849 18.7398C102.755 18.9263 102.567 19.0195 102.378 19.0195C102.19 19.0195 102.002 19.0195 101.813 18.833C100.683 17.9939 99.2704 17.5277 97.7635 17.5277C96.3507 17.5277 95.1263 17.9006 95.1263 19.0195C95.1263 20.2316 96.8216 20.4181 98.5169 20.7911C102.19 21.4438 104.451 22.4694 104.451 25.4531C104.451 28.6232 101.908 30.5813 97.8577 30.5813C95.5972 30.6745 93.431 29.9286 91.7357 28.6232C91.6415 28.53 91.5473 28.4368 91.5473 28.4368C91.4531 28.3435 91.4531 28.2503 91.4531 28.157C91.4531 28.0638 91.4531 27.9706 91.4531 27.8773C91.4531 27.7841 91.5473 27.6908 91.6415 27.5976L92.7717 26.3855Z" fill="#00D54B"/>
<path id="Vector_4" d="M106.898 29.556V10.535C106.898 10.3485 106.993 10.162 107.087 9.97554C107.275 9.78906 107.464 9.78906 107.652 9.78906H109.818C110.007 9.78906 110.195 9.8823 110.383 9.97554C110.477 10.162 110.572 10.3485 110.572 10.535V17.0618C111.137 16.3159 111.796 15.7564 112.644 15.3835C113.491 15.0105 114.339 14.824 115.281 14.824C118.483 14.824 120.367 17.0618 120.367 20.3252V29.556C120.367 29.7424 120.273 29.9289 120.178 30.1154C119.99 30.3019 119.802 30.3019 119.613 30.3019H117.447C117.259 30.3019 117.07 30.2086 116.882 30.1154C116.694 29.9289 116.694 29.7424 116.694 29.556V21.1644C116.694 19.5793 116.128 18.0874 114.056 18.0874C112.079 18.0874 110.572 19.486 110.572 21.7238V29.556C110.572 29.7424 110.477 29.9289 110.383 30.1154C110.195 30.3019 110.007 30.3019 109.818 30.3019H107.652C107.558 30.3019 107.464 30.3019 107.369 30.2086C107.275 30.2086 107.181 30.1154 107.087 30.0222C106.993 29.9289 106.993 29.8357 106.898 29.7424C106.898 29.7424 106.898 29.6492 106.898 29.556Z" fill="#00D54B"/>
<path id="Vector_5" d="M144.292 29.7453L142.691 25.1766H134.78L133.178 29.7453C133.084 29.9318 132.99 30.025 132.896 30.1183C132.802 30.2115 132.613 30.2115 132.425 30.2115H129.976C129.882 30.2115 129.694 30.2115 129.599 30.1183C129.505 30.025 129.411 30.025 129.317 29.8386C129.223 29.7453 129.223 29.6521 129.223 29.4656C129.223 29.3724 129.223 29.1859 129.223 29.0926L136.381 10.0717C136.475 9.97843 136.569 9.79195 136.663 9.69871C136.757 9.60547 136.946 9.60547 137.134 9.60547H140.619C140.807 9.60547 140.902 9.69871 141.09 9.69871C141.184 9.79195 141.278 9.88519 141.372 10.0717L148.436 29.0926C148.436 29.1859 148.53 29.3724 148.436 29.4656C148.436 29.5588 148.342 29.7453 148.342 29.8386C148.248 29.9318 148.154 30.025 148.06 30.1183C147.965 30.2115 147.871 30.2115 147.683 30.2115H144.951C144.763 30.2115 144.669 30.1183 144.481 30.025C144.386 30.025 144.292 29.9318 144.292 29.7453ZM138.829 13.0554L135.816 22.0064H141.749L138.829 13.0554Z" fill="#00D54B"/>
<path id="Vector_6" d="M153.802 15.8499V17.062C154.367 16.3161 155.026 15.7566 155.874 15.3837C156.722 15.0107 157.569 14.8242 158.511 14.8242C162.655 14.8242 165.387 18.2741 165.387 22.7496C165.387 27.2252 162.655 30.675 158.511 30.675C157.569 30.675 156.722 30.4886 155.874 30.1156C155.026 29.7426 154.367 29.09 153.802 28.344V34.4979C153.802 34.6844 153.708 34.8708 153.614 35.0573C153.425 35.2438 153.237 35.2438 153.049 35.2438H150.882C150.694 35.2438 150.506 35.1506 150.317 35.0573C150.129 34.8708 150.129 34.6844 150.129 34.4979V15.8499C150.129 15.6634 150.223 15.4769 150.317 15.2904C150.411 15.1039 150.694 15.1039 150.882 15.1039H153.049C153.143 15.1039 153.237 15.1039 153.331 15.1972C153.425 15.1972 153.52 15.2904 153.614 15.3837C153.708 15.4769 153.708 15.5701 153.802 15.6634C153.802 15.6634 153.896 15.7566 153.802 15.8499ZM157.758 27.4116C160.301 27.4116 161.525 25.2671 161.525 22.6564C161.525 20.0457 160.301 17.9011 157.758 17.9011C155.215 17.9011 153.802 19.9524 153.802 22.6564C153.802 25.2671 155.215 27.4116 157.758 27.4116Z" fill="#00D54B"/>
<path id="Vector_7" d="M171.415 15.8499V17.062C171.98 16.3161 172.64 15.7566 173.487 15.3837C174.335 15.0107 175.183 14.8242 176.125 14.8242C180.269 14.8242 183 18.2741 183 22.7496C183 27.2252 180.269 30.675 176.125 30.675C175.183 30.675 174.335 30.4886 173.487 30.1156C172.64 29.7426 171.98 29.09 171.415 28.344V34.4979C171.415 34.6844 171.321 34.8708 171.227 35.0573C171.133 35.2438 170.85 35.2438 170.662 35.2438H168.496C168.307 35.2438 168.119 35.1506 167.931 35.0573C167.742 34.8708 167.742 34.6844 167.742 34.4979V15.8499C167.742 15.6634 167.836 15.4769 167.931 15.2904C168.025 15.1039 168.307 15.1039 168.496 15.1039H170.662C170.756 15.1039 170.85 15.1039 170.944 15.1972C171.039 15.1972 171.133 15.2904 171.227 15.3837C171.321 15.4769 171.321 15.5701 171.415 15.6634C171.415 15.6634 171.415 15.7566 171.415 15.8499ZM175.371 27.4116C177.914 27.4116 179.138 25.2671 179.138 22.6564C179.138 20.0457 177.914 17.9011 175.371 17.9011C172.828 17.9011 171.415 19.9524 171.415 22.6564C171.415 25.2671 172.734 27.4116 175.371 27.4116Z" fill="#00D54B"/>
<path id="Vector_8" fill-rule="evenodd" clip-rule="evenodd" d="M9.32424 0C4.14411 0 0 4.10256 0 9.23077V30.7692C0 35.8974 4.14411 40 9.32424 40H30.8924C36.0726 40 40.2167 35.8974 40.2167 30.7692V9.23077C40.2167 4.10256 36.0726 0 30.8924 0H9.32424ZM26.6541 14.9184C25.1472 13.6131 23.1693 12.9604 21.1915 12.9604C19.4961 12.9604 17.895 13.5198 17.895 15.0117C17.895 16.4103 19.402 16.9697 21.1915 17.6224C21.3798 17.7156 21.5682 17.7156 21.7566 17.8089C25.3356 19.021 28.3495 20.5128 28.3495 23.9627C28.3495 27.7855 25.3356 30.303 20.5322 30.676L20.0612 32.7273C19.9671 33.1002 19.6845 33.38 19.2136 33.38H16.1997C15.9171 33.38 15.7288 33.2867 15.5404 33.1002C15.352 32.9137 15.352 32.634 15.352 32.4476L15.823 30.303C14.0335 29.8368 12.3381 28.9044 10.9254 27.5991C10.737 27.4126 10.6428 27.2261 10.6428 27.0396C10.6428 26.8531 10.737 26.5734 10.9254 26.4802L12.6207 24.8019C12.9032 24.5221 13.4683 24.5221 13.7509 24.8019C15.2578 26.2937 17.4241 27.0396 19.4961 27.0396C21.6624 27.0396 23.1693 26.1072 23.1693 24.6154C23.1693 23.31 21.9449 22.8438 19.5903 22.0047C19.3078 21.9114 19.1194 21.8182 18.8368 21.7249C15.823 20.6993 12.9974 19.1142 12.9974 15.6643C12.9974 11.5618 16.3881 9.60373 20.5322 9.41725L21.0031 7.36597C21.0031 6.71329 21.3798 6.52681 21.7566 6.52681H24.7705C25.053 6.52681 25.2414 6.62005 25.4297 6.80653C25.6181 6.99301 25.6181 7.27273 25.6181 7.45921L25.1472 9.79021C26.6541 10.2564 28.1611 11.0956 29.3855 12.1212C29.5739 12.3077 29.668 12.4942 29.668 12.6807C29.668 12.8671 29.5739 13.1469 29.3855 13.2401L27.7844 14.8252C27.5018 15.1981 26.9367 15.1981 26.6541 14.9184Z" fill="#00D54B"/>
</g>
</g>
</g>
</g>
<defs>
<clipPath id="bgblur_0_0_1_clip_path" transform="translate(40 40)"><rect x="-16" y="-16" width="215" height="72" rx="20"/>
</clipPath><clipPath id="clip1_0_1">
<rect width="183" height="40" fill="white"/>
</clipPath>
</defs>
</svg>
