<svg width="173" height="32" viewBox="0 0 173 32" fill="none" xmlns="http://www.w3.org/2000/svg">
<g id="Parallax">
<g id="Frame 2131330465" data-figma-bg-blur-radius="24">
<g id="idcn3Ja0P1_1781010873422 1" clip-path="url(#clip1_0_1)">
<g id="Group">
<g id="Group_2">
<path id="Vector" d="M152.315 0C151.636 0 151.234 0.549997 151.234 1.075V9H172.319L162.719 0H152.315Z" fill="#126BC5"/>
<path id="Vector_2" d="M173 11.4266C173 10.7516 172.447 10.3516 171.92 10.3516H163.953V31.3266L173 21.7766V11.4266Z" fill="#126BC5"/>
<path id="Vector_3" d="M161.512 32C162.19 32 162.593 31.45 162.593 30.925V23H141.508L151.108 32H161.512Z" fill="#126BC5"/>
<path id="Vector_4" d="M140.832 20.5719C140.832 21.2469 141.385 21.6469 141.913 21.6469H149.879V0.796875L140.832 10.3469V20.5719Z" fill="#126BC5"/>
</g>
<path id="Vector_5" d="M44.4565 3.77344V13.4484H30.9613V3.77344H26.0859V28.2234H30.9613V17.7484H44.4565V28.2234H49.4575V3.77344H44.4565Z" fill="white"/>
<path id="Vector_6" d="M110.023 3.77344V28.0984H131.636L128.947 23.9234H115.024V17.7484H128.394V13.5734H115.024V8.07343H128.796L131.51 3.77344H110.023Z" fill="white"/>
<g id="Group_3">
<path id="Vector_7" d="M7.71514 3.77344C2.58847 3.77344 0 6.87343 0 11.4484V20.5984C0 25.8484 3.36752 28.2734 7.71514 28.2734H23.1203L20.2805 23.6984H8.64498C6.2073 23.6984 5.12668 22.7484 5.12668 20.0734V11.8734C5.12668 9.17344 6.08164 8.09843 8.77063 8.09843H20.4062L23.1203 3.79844L7.71514 3.77344Z" fill="white"/>
<path id="Vector_8" d="M88.3826 3.77344C85.4171 3.77344 82.4266 5.52344 82.4266 10.0984V11.2984C82.4266 15.9984 85.392 17.8984 88.2318 17.8984H98.5102C99.5909 17.8984 100.395 18.0234 100.395 19.9234V21.9484C100.395 23.5734 99.5909 23.9734 98.3595 23.9734H84.8391L82.125 28.2734H98.7615C102.808 28.2734 105.522 26.2484 105.522 21.6734V20.0484C105.522 15.6234 102.958 13.5984 99.038 13.5984H89.1616C88.081 13.5984 87.2768 13.3234 87.2768 11.7234V9.84844C87.2768 8.49844 87.8297 7.97343 89.036 7.97343H101.878L104.592 3.79844H88.3826V3.77344Z" fill="white"/>
</g>
<path id="Vector_9" d="M63.7801 3.77344L52.1445 28.0984H57.6984L59.9853 23.1234H72.5507L74.8376 28.0984H80.3915L68.6303 3.77344H63.7801ZM66.0921 8.87344L70.5402 18.9484H61.6188L66.0921 8.87344Z" fill="white"/>
</g>
</g>
</g>
</g>
<defs>
<clipPath id="bgblur_0_0_1_clip_path" transform="translate(40 40)"><rect x="-16" y="-16" width="205" height="64" rx="20"/>
</clipPath><clipPath id="clip1_0_1">
<rect width="173" height="32" fill="white"/>
</clipPath>
</defs>
</svg>
