<svg width="69" height="40" viewBox="0 0 69 40" fill="none" xmlns="http://www.w3.org/2000/svg">
<g id="Parallax">
<g id="Frame 2131330466" data-figma-bg-blur-radius="24">
<g id="Citi_Bank_Logo_0 1" clip-path="url(#clip1_0_1)">
<g id="Clip path group">
<mask id="mask0_0_1" style="mask-type:luminance" maskUnits="userSpaceOnUse" x="0" y="0" width="69" height="40">
<g id="clip0_383_492">
<path id="Vector" d="M68.3949 0.386719H0.605469V39.6108H68.3949V0.386719Z" fill="white"/>
</g>
</mask>
<g mask="url(#mask0_0_1)">
<g id="Group">
<path id="Vector_2" d="M0.664062 27.003C0.664062 20.0038 6.38743 14.5547 13.8466 14.5547C18.1626 14.5547 22.1033 16.4806 24.3552 19.3931L21.1181 22.6343C20.2596 21.5336 19.1641 20.641 17.9132 20.0228C16.6624 19.4047 15.2883 19.0771 13.8935 19.0643C9.43675 19.0643 5.87138 22.3995 5.87138 27.003C5.87138 31.6536 9.43675 34.9887 13.8935 34.9887C15.3383 34.987 16.7631 34.6512 18.0569 34.0075C19.3507 33.3638 20.4787 32.4296 21.3527 31.2777L24.5428 34.4251C22.3848 37.4784 18.2564 39.4983 13.8466 39.4983C6.38743 39.4983 0.664062 34.0492 0.664062 27.003Z" fill="#255BE3"/>
<path id="Vector_3" d="M28.7656 15.3984H33.8791V38.651H28.7656V15.3984Z" fill="#255BE3"/>
<path id="Vector_4" d="M43.403 32.4033V19.7201H37.8203V15.3984H43.6375V10.419L48.4227 8.07031V15.3984H56.0226V19.7201H48.4227V31.5578C48.4227 33.9066 49.7362 34.94 52.2227 34.94C53.5164 34.9467 54.7964 34.6743 55.9757 34.1413V38.5571C54.4981 39.2062 52.8975 39.5268 51.2844 39.4965C46.7338 39.4965 43.403 37.0069 43.403 32.4033Z" fill="#255BE3"/>
<path id="Vector_5" d="M60.0547 15.3984H65.1682V38.651H60.0547V15.3984Z" fill="#255BE3"/>
<path id="Vector_6" d="M46.9197 0.601638C51.1194 0.591577 55.2599 1.59364 58.9913 3.52309C62.7229 5.45267 65.9359 8.25303 68.3591 11.6877H62.4012C60.4482 9.51424 58.0608 7.7763 55.3938 6.58661C52.7266 5.39691 49.8395 4.78212 46.9197 4.78212C44.0001 4.78212 41.1128 5.39691 38.4458 6.58661C35.7787 7.7763 33.3913 9.51424 31.4384 11.6877H25.4805C27.9036 8.25303 31.1167 5.45267 34.8481 3.52309C38.5797 1.59364 42.7201 0.591577 46.9197 0.601638Z" fill="#FF3C28"/>
</g>
</g>
</g>
</g>
</g>
</g>
<defs>
<clipPath id="bgblur_0_0_1_clip_path" transform="translate(44 44)"><rect x="-20" y="-20" width="109" height="80" rx="20"/>
</clipPath><clipPath id="clip1_0_1">
<rect width="69" height="40" fill="white"/>
</clipPath>
</defs>
</svg>
