<svg width="117" height="41" viewBox="0 0 117 41" fill="none" xmlns="http://www.w3.org/2000/svg">
<g id="Parallax">
<g id="Frame 2131330462" data-figma-bg-blur-radius="24">
<g id="Frame 2131330391">
<g id="MetaMask_Symbol_0 1" clip-path="url(#clip1_0_1)">
<path id="Vector" d="M39.5378 38.2835L30.6803 35.6517L24.0007 39.6362L19.34 39.6341L12.6561 35.6517L3.80244 38.283L1.10938 29.2114L3.80244 19.1425L1.10938 10.629L3.80244 0.078125L17.6374 8.32551H25.7034L39.5378 0.078125L42.2309 10.629L39.5378 19.1421L42.2309 29.2109L39.5378 38.2835Z" fill="#FF5C16"/>
<path id="Vector_2" d="M3.80469 0.078125L17.6396 8.33189L17.0891 13.9961L3.80469 0.078125ZM12.6597 29.2143L18.7471 33.8413L12.6597 35.6509V29.2143ZM18.2587 21.5639L17.0886 13.999L9.60042 19.1429L9.59616 19.1408V19.145L9.61958 24.4396L12.6563 21.5639H18.2587ZM39.5371 0.078125L25.7026 8.33189L26.2506 13.9961L39.5371 0.078125ZM30.6851 29.2143L24.5986 33.8409L30.6855 35.6504L30.6851 29.2143ZM33.7443 19.1446V19.1408L33.7426 19.1429L26.2536 13.999L25.084 21.5639H30.6847L33.7231 24.4396L33.7443 19.1446Z" fill="#FF5C16"/>
<path id="Vector_3" d="M12.6566 35.6503L3.80244 38.2817L1.10938 29.2138H12.6566V35.6503ZM18.2564 21.5625L19.9476 32.4987L17.6037 26.4185L9.61521 24.4404L12.6536 21.5629L18.2564 21.5625ZM30.6841 35.6503L39.5383 38.2817L42.2313 29.2138H30.6841V35.6503ZM25.0843 21.5625L23.3931 32.4987L25.737 26.4185L33.7255 24.4404L30.685 21.5629L25.0843 21.5625Z" fill="#E34807"/>
<path id="Vector_4" d="M1.10938 29.207L3.80244 19.1377H9.59434L9.61563 24.4344L17.6041 26.4122L19.9481 32.4928L18.7431 33.8318L12.6566 29.2049H1.10938V29.207ZM42.2318 29.207L39.5387 19.1377H33.7468L33.7255 24.4344L25.737 26.4122L23.3931 32.4928L24.598 33.8318L30.685 29.2049H42.2313L42.2318 29.207ZM25.7038 8.32031H17.6378L17.0894 13.9845L19.9485 32.4855H23.3931L26.2543 13.9845L25.7038 8.32031Z" fill="#FF8D5D"/>
<path id="Vector_5" d="M3.80244 0.078125L1.10938 10.629L3.80244 19.1421H9.59434L17.0868 13.9961L3.80244 0.078125ZM16.5848 23.7605H13.9612L12.5322 25.1579L17.6075 26.414L16.5848 23.7588V23.7605ZM39.5383 0.078125L42.2313 10.629L39.5383 19.1421H33.7464L26.2539 13.9961L39.5383 0.078125ZM26.7601 23.7605H29.3872L30.8161 25.16L25.7349 26.4178L26.7601 23.7588V23.7605ZM23.9994 36.0268L24.598 33.8396L23.3935 32.5005H19.9472L18.7427 33.8396L19.3413 36.0264" fill="#661800"/>
<path id="Vector_6" d="M23.9944 36.0234V39.6341H19.3359V36.0234H23.9944Z" fill="#C0C4CD"/>
<path id="Vector_7" d="M12.6562 35.6455L19.3419 39.6338V36.0228L18.7436 33.8359L12.6562 35.6455ZM30.6817 35.6455L23.9961 39.6338V36.0228L24.5943 33.8359L30.6817 35.6455Z" fill="#E7EBF6"/>
</g>
<g id="MetaMask_Logo_0 1">
<path id="Vector_8" d="M86.0385 28.9752V36.2121H82.3156V31.1981L78.0732 31.6934C77.1414 31.8008 76.7319 32.1073 76.7319 32.6702C76.7319 33.4955 77.5099 33.8435 79.1787 33.8435C80.1957 33.8435 81.3228 33.6915 82.3177 33.4295L80.391 36.1676C79.6124 36.3416 78.8539 36.4275 78.0537 36.4275C74.6773 36.4275 72.7506 35.0807 72.7506 32.6901C72.7506 30.5819 74.2651 29.4746 77.7073 29.0826L82.2545 28.5523C82.0087 27.2254 81.0111 26.6484 79.0276 26.6484C77.1656 26.6484 75.1094 27.1264 73.2701 28.0177L73.855 24.7792C75.5648 24.0618 77.5136 23.6923 79.4824 23.6923C83.8128 23.6923 86.0421 25.4971 86.0421 28.972L86.0379 28.9746L86.0385 28.9752ZM52.5497 19.9135L48.4805 36.2116H52.5497L54.569 28.0219L58.0697 32.2347H62.3127L65.8134 28.0219L67.8327 36.2116H71.902L67.8327 19.9114L60.1902 29.0234L52.5476 19.9114L52.5497 19.9135ZM67.8327 3.61328L60.1902 12.7253L52.5497 3.61328L48.4805 19.9135H52.5497L54.569 11.7238L58.0697 15.9366H62.3127L65.8134 11.7238L67.8327 19.9135H71.902L67.8327 3.61328ZM95.8225 28.8232L92.5324 28.3453C91.7101 28.2158 91.3858 27.9538 91.3858 27.4979C91.3858 26.759 92.186 26.4331 93.8321 26.4331C95.7378 26.4331 97.4476 26.8245 99.2453 27.6719L98.7915 24.4784C97.3402 23.957 95.6741 23.6971 93.9421 23.6971C89.895 23.6971 87.6851 25.1099 87.6851 27.652C87.6851 29.6307 88.8974 30.738 91.4732 31.1295L94.8081 31.6294C95.6519 31.7594 95.9983 32.0853 95.9983 32.6068C95.9983 33.3456 95.2203 33.6936 93.6394 33.6936C91.5611 33.6936 89.3096 33.1942 87.4698 32.3028L87.8383 35.4963C89.4191 36.0843 91.4759 36.4317 93.4026 36.4317C97.5592 36.4317 99.7233 34.9749 99.7233 32.3888C99.7233 30.324 98.5109 29.2147 95.8278 28.8253L95.8225 28.8232ZM101.171 21.3677V36.2111H104.893V21.3682L101.171 21.3677ZM109.243 29.5401L114.419 23.9098H109.787L104.893 29.734L110.111 36.209H114.809L109.243 29.538V29.5401ZM100.651 16.392C100.651 18.7816 102.578 20.1284 105.955 20.1284C106.755 20.1284 107.513 20.0408 108.292 19.869L110.219 17.1309C109.224 17.3908 108.097 17.5448 107.079 17.5448C105.413 17.5448 104.633 17.1969 104.633 16.3715C104.633 15.8061 105.045 15.5021 105.975 15.3947L110.216 14.8995V19.913H113.939V12.676C113.939 9.19901 111.709 7.39631 107.38 7.39631C105.409 7.39631 103.462 7.76576 101.752 8.48369L101.166 11.7212C103.006 10.8298 105.062 10.3519 106.924 10.3519C108.908 10.3519 109.905 10.9283 110.151 12.2557L105.604 12.7866C102.162 13.178 100.647 14.2853 100.647 16.3935L100.651 16.392ZM90.2393 15.6101C90.2393 18.6102 91.9712 20.131 95.3914 20.131C96.7548 20.131 97.8824 19.913 98.9631 19.413L99.4385 16.132C98.3993 16.7609 97.3381 17.0868 96.2773 17.0868C94.6749 17.0868 93.96 16.4355 93.96 14.9786V10.6317H99.6096V7.61169H93.9595V5.0481L86.8802 8.80755V10.6323H90.2346V15.6085L90.2388 15.6106L90.2393 15.6101ZM86.5807 14.2413V14.9807H76.5187C76.9724 16.4863 78.3206 17.1749 80.7142 17.1749C82.6199 17.1749 84.3955 16.7834 85.9742 16.0241L85.5205 19.1977C84.0691 19.8055 82.2298 20.1331 80.3463 20.1331C75.3453 20.1331 72.6184 17.9164 72.6184 13.81C72.6184 9.70261 75.3895 7.39841 79.6756 7.39841C83.9617 7.39841 86.5817 9.8986 86.5817 14.2434L86.5791 14.2413H86.5807ZM76.4702 12.459H82.8326C82.4972 11.0174 81.3944 10.2644 79.6319 10.2644C77.8689 10.2644 76.8235 10.9975 76.4702 12.459Z" fill="white"/>
</g>
</g>
</g>
</g>
<defs>
<clipPath id="bgblur_0_0_1_clip_path" transform="translate(40 39.9883)"><rect x="-16" y="-15.9883" width="149" height="72" rx="20"/>
</clipPath><clipPath id="clip1_0_1">
<rect width="41.3008" height="40.0234" fill="white" transform="translate(1)"/>
</clipPath>
</defs>
</svg>
