<svg width="110" height="40" viewBox="0 0 110 40" fill="none" xmlns="http://www.w3.org/2000/svg">
<g id="Parallax">
<g id="Frame 2131330468" data-figma-bg-blur-radius="24">
<g id="Layer_2" clip-path="url(#clip1_0_1)">
<g id="Union">
<path d="M53.5983 17.6283C54.5662 17.6283 55.5727 17.7498 56.5956 17.9866C57.6238 18.2015 58.5146 18.5154 59.246 18.9119L59.3287 18.9561V21.7051L59.1031 21.6056C57.1399 20.7573 55.3087 20.3279 53.659 20.3279C50.5519 20.3279 49.0393 21.3412 49.0392 23.4234C49.0392 24.1065 49.2978 24.6743 49.8367 25.1535C50.3867 25.6493 51.3765 26.1782 52.7787 26.74L55.0338 27.6212C57.0026 28.3924 58.4269 29.2742 59.2573 30.2492H59.268C60.1259 31.2133 60.5661 32.3922 60.5661 33.7584C60.566 35.7195 59.8566 37.2784 58.4544 38.3802C57.085 39.4544 55.1379 40 52.6686 40C51.9208 40 51.1233 39.9392 50.304 39.8235C49.5011 39.7079 48.7368 39.5479 48.0274 39.3496C47.3236 39.1568 46.7131 38.9367 46.2127 38.6943L46.1246 38.6502V35.9012L46.3443 35.9894C48.4615 36.8598 50.5129 37.3004 52.4377 37.3004C54.0325 37.3004 55.2977 36.981 56.1831 36.3585C57.0795 35.7415 57.5193 34.9094 57.5193 33.8187C57.5193 33.0255 57.2498 32.3647 56.7164 31.8524C56.1665 31.3235 55.1491 30.7724 53.6917 30.2105L51.4313 29.3293C49.5232 28.5801 48.1209 27.7372 47.2685 26.8229C46.4216 25.8753 45.9925 24.7512 45.9925 23.4842C45.9925 21.6773 46.6856 20.2341 48.0494 19.1874C49.4023 18.1518 51.2665 17.6283 53.5983 17.6283Z" fill="white"/>
<path fill-rule="evenodd" clip-rule="evenodd" d="M26.5124 23.6666C30.8569 23.6666 33.0622 26.1014 33.0623 30.905V32.7669H22.4925C22.6245 34.3535 23.0701 35.5384 23.8126 36.2821C24.577 37.0311 25.7429 37.4113 27.2771 37.4113C28.1405 37.4113 28.9654 37.3233 29.7352 37.1525C30.5052 36.9817 31.3029 36.7059 32.1058 36.3423L32.3308 36.2379V38.8105L32.254 38.86C31.6931 39.2016 30.9397 39.4767 30.0048 39.6751C29.0919 39.8734 28.0854 39.9726 27.0075 39.9726C24.5493 39.9726 22.6577 39.2619 21.3818 37.8626C20.1225 36.4469 19.4898 34.3427 19.4898 31.6765C19.4898 29.0103 20.0616 27.1207 21.2879 25.727C22.5087 24.3663 24.2633 23.6773 26.507 23.6773L26.5124 23.6666ZM26.507 26.1676C25.2697 26.1676 24.2911 26.5478 23.6037 27.2914C22.9602 27.9966 22.5806 29.0322 22.4871 30.3708H30.1864C30.1644 28.8946 29.8728 27.8204 29.3174 27.1704C28.762 26.5038 27.8214 26.1676 26.507 26.1676Z" fill="white"/>
<path fill-rule="evenodd" clip-rule="evenodd" d="M103.45 23.6773C107.795 23.6773 110 26.1122 110 30.9158V32.7669H99.4302C99.5622 34.3534 100.007 35.5378 100.75 36.2815C101.514 37.0307 102.68 37.4107 104.215 37.4107C105.078 37.4107 105.903 37.3227 106.673 37.152C107.443 36.9812 108.24 36.7058 109.043 36.3423L109.269 36.2374V38.81L109.192 38.8595C108.631 39.201 107.877 39.4767 106.943 39.6751C106.03 39.8734 105.023 39.9726 103.945 39.9726C101.487 39.9726 99.5949 39.2619 98.319 37.8626C97.0652 36.4468 96.4329 34.3422 96.4329 31.6759C96.4329 29.0098 97.0046 27.1202 98.2309 25.7265C99.4518 24.3658 101.206 23.6773 103.45 23.6773ZM103.45 26.1671C102.213 26.1671 101.234 26.5474 100.547 27.2909C99.9033 27.996 99.5237 29.0321 99.4302 30.3708H107.129C107.107 28.8944 106.816 27.8199 106.26 27.1699C105.705 26.5033 104.764 26.1671 103.45 26.1671Z" fill="white"/>
<path d="M65.7621 33.5535C65.7621 34.8205 66.0373 35.8069 66.5763 36.479C67.1042 37.1399 67.9016 37.4758 68.9409 37.4758C69.8208 37.4758 70.6512 37.1676 71.4211 36.5672C72.2074 35.9502 72.8069 35.1238 73.2084 34.1103V24.0066H76.167V39.6519H74.0827L73.6595 37.2832C73.0546 38.0875 72.3119 38.732 71.4484 39.1893C70.4916 39.707 69.4303 39.9715 68.2975 39.9715C66.5597 39.9715 65.1902 39.4148 64.2223 38.3296C63.282 37.2443 62.8034 35.6689 62.8034 33.6417V23.9958H65.7621V33.5535Z" fill="white"/>
<path d="M39.7111 23.9969H43.022V26.4925H39.7111V34.7886C39.7111 36.3807 40.3657 37.152 41.7186 37.152C41.9439 37.152 42.1692 37.1465 42.3781 37.1245L42.384 37.1138C42.6094 37.0752 42.8294 37.0476 43.0274 37.0255L43.203 37.0089V39.6089L43.0768 39.6363C42.7909 39.6969 42.4994 39.7359 42.2025 39.7579C41.9275 39.7744 41.6249 39.7853 41.3115 39.7853C39.7717 39.7853 38.6057 39.3778 37.8523 38.5625C37.1264 37.7527 36.7578 36.4909 36.7578 34.8107V26.4872H34.1182V24.8619L36.7798 23.9748L37.841 19.7716H39.7111V23.9969Z" fill="white"/>
<path d="M91.3566 23.9969H94.6676V26.4925H91.3566V34.7886C91.3566 36.3807 92.0113 37.152 93.3641 37.152C93.5896 37.152 93.8152 37.1466 94.0242 37.1245L94.0295 37.1138C94.255 37.0752 94.475 37.0476 94.6729 37.0255L94.8491 37.0089V39.6089L94.7223 39.6363C94.4364 39.6969 94.145 39.7359 93.848 39.7579C93.5731 39.7744 93.2705 39.7853 92.957 39.7853C91.4173 39.7853 90.2513 39.3778 89.4979 38.5625C88.7664 37.7527 88.398 36.4909 88.398 34.8107V26.4872H85.7583V24.8619L88.4254 23.9748L89.4871 19.7716H91.3566V23.9969Z" fill="white"/>
<path d="M2.87648 18.0528L13.9248 34.4691V17.9813H16.9382V39.6476H14.1171L14.0677 39.5761L3.01933 23.1598V39.6476H0V17.9813H2.82653L2.87648 18.0528Z" fill="white"/>
<path d="M83.5091 39.6476H80.5499V26.3048L79.0269 25.3354V24.0023H83.5091V39.6476Z" fill="white"/>
<path d="M83.4817 21.6233H79.9345V18.9238H83.4817V21.6233Z" fill="white"/>
<path d="M24.7642 0.0936075C26.6065 0.0936888 28.0859 1.5812 28.0859 3.4156C28.0859 5.19276 26.7024 6.6439 24.9409 6.73275L24.775 6.74835H23.9173L27.6955 9.9267H24.9619L19.3249 5.01876H24.6375C25.5174 5.01876 26.2272 4.29689 26.2272 3.42098C26.2272 2.54508 25.5174 1.83449 24.6375 1.83449H18.3958V9.92132H16.5091V0.0936075H24.7642Z" fill="white"/>
<path d="M76.0027 0.0989873L74.8974 1.82911H69.3647C67.9074 1.82914 66.6867 2.79841 66.3072 4.1424H75.4801L74.3695 5.87253H66.3126C66.6975 7.20556 67.9183 8.18627 69.37 8.18635V8.19711H76.1676L75.0623 9.9267H69.2385C66.5328 9.9267 64.3385 7.74005 64.3383 5.01876C64.3383 2.29739 66.5327 0.0989873 69.2385 0.0989873H76.0027Z" fill="white"/>
<path fill-rule="evenodd" clip-rule="evenodd" d="M10.6085 0.0936075C13.3252 0.0936189 15.5139 2.29715 15.514 5.00746C15.514 7.71782 13.3305 9.91594 10.6192 9.91594H4.91676L4.91085 9.92132C2.19419 9.92123 0 7.73967 0 5.01284C0.000115549 2.28612 2.19426 0.0937001 4.91085 0.0936075H10.6085ZM5.03759 1.82911C3.28329 1.82911 1.86417 3.25569 1.86412 5.00746C1.86412 6.75928 3.28327 8.18635 5.03759 8.18635H10.4817C12.2471 8.18635 13.666 6.76479 13.666 5.00746C13.6659 3.25018 12.236 1.82911 10.4817 1.82911H5.03759Z" fill="white"/>
<path d="M35.2513 0C35.7243 0 36.1427 0.220526 36.4012 0.58962L42.3566 9.92132H40.1353L39.0902 8.19173H33.9919L32.8813 6.46215L32.8759 6.45623H37.9023L35.246 2.16481L30.3679 9.92132H28.1407L34.0859 0.605759C34.3389 0.225867 34.7786 6.80993e-05 35.2513 0Z" fill="white"/>
<path d="M55.9624 0.0936075V8.19173H64.7562L63.6343 9.92132H55.0387C54.7857 9.92132 54.5326 9.8224 54.3566 9.63512C54.1806 9.46434 54.0763 9.2271 54.0763 8.98471V0.0936075H55.9624Z" fill="white"/>
<path d="M53.0806 0.0882278L51.9592 1.82911H46.4318C44.6666 1.82921 43.2476 3.25574 43.2476 5.00746C43.2476 6.75922 44.6665 8.18626 46.4318 8.18635H53.224L52.1182 9.91594H46.3056C43.5944 9.91594 41.3942 7.72884 41.3942 5.00746C41.3942 2.28613 43.5944 0.0882278 46.3056 0.0882278H53.0806Z" fill="white"/>
</g>
</g>
</g>
</g>
<defs>
<clipPath id="bgblur_0_0_1_clip_path" transform="translate(44 40)"><rect x="-20" y="-16" width="150" height="72" rx="20"/>
</clipPath><clipPath id="clip1_0_1">
<rect width="110" height="40" fill="white"/>
</clipPath>
</defs>
</svg>
