<svg width="163" height="32" viewBox="0 0 163 32" fill="none" xmlns="http://www.w3.org/2000/svg">
<g id="Parallax">
<g id="Frame 2131330463" data-figma-bg-blur-radius="24">
<g id="Intuit_QuickBooks_idH8urRJxv_1 1">
<g id="Group">
<g id="Group_2">
<path id="Vector" d="M160.995 23.9647C160.995 23.6401 160.714 23.5219 160.427 23.5219H159.889V25.0346H160.163V24.4015H160.361L160.719 25.0336H161.054L160.642 24.3724C160.857 24.3253 160.995 24.1831 160.995 23.9647ZM160.163 24.1831V23.7523H160.414C160.558 23.7523 160.719 23.7934 160.719 23.9587C160.719 24.142 160.54 24.1831 160.385 24.1831H160.164H160.163ZM160.421 22.9429C159.668 22.9429 159.058 23.5399 159.058 24.2843C159.058 25.0276 159.668 25.6126 160.421 25.6126C161.174 25.6126 161.783 25.0276 161.783 24.2843C161.783 23.5399 161.174 22.9429 160.421 22.9429ZM160.421 25.4173C160.119 25.4181 159.829 25.2994 159.614 25.0872C159.398 24.875 159.276 24.5864 159.273 24.2843C159.275 23.9817 159.397 23.6924 159.612 23.4798C159.828 23.2672 160.118 23.1487 160.421 23.1503C161.054 23.1503 161.568 23.6582 161.568 24.2843C161.568 24.9034 161.054 25.4173 160.421 25.4173ZM72.7425 23.1703C70.749 23.1703 69.7432 21.4102 69.7432 19.7092C69.7432 18.0082 70.8342 16.3232 72.6463 16.3232C73.4958 16.3232 74.5687 16.744 74.9905 17.335L77.1002 15.2574C76.0784 14.1945 74.4505 13.5594 72.6463 13.5594C68.9759 13.5594 66.3122 16.162 66.3122 19.7463C66.3122 23.3897 68.9468 25.9332 72.7185 25.9332C74.5136 25.9332 76.1716 25.4143 77.1553 24.3704L75.1017 22.1936C74.6278 22.7646 73.6341 23.1703 72.7425 23.1703ZM60.9387 25.6036H64.2145V13.889H60.9387V25.6036ZM54.9853 20.3113C54.9853 21.6887 54.0767 23.1703 52.3837 23.1703C51.0784 23.1703 50.3811 22.2507 50.3811 20.3594V13.889H47.1074V21.1598C47.1074 23.579 48.3295 25.9332 51.5963 25.9332C53.138 25.9332 54.4283 24.7351 55.0794 23.8505H55.1275V25.6036H58.259V13.889H54.9853V20.3113ZM41.2 15.3776H41.1269C40.664 14.8727 39.4108 13.5604 37.3763 13.5604C34.0374 13.5604 31.4648 16.1429 31.4648 19.7012C31.4648 23.3125 33.839 25.9342 37.219 25.9342C38.7537 25.9342 40.1962 25.1308 41.0317 24.1961H41.0798V31.3727H44.3555V13.889H41.2V15.3766V15.3776ZM38.0204 23.1713C35.9958 23.1713 34.8448 21.4252 34.8448 19.7002C34.8448 18.0513 35.9017 16.2772 38.0204 16.2772C39.9688 16.2772 41.1759 18.0783 41.1759 19.7473C41.1759 21.4302 39.9949 23.1713 38.0204 23.1713ZM112.608 13.5604C108.881 13.5604 106.177 16.1429 106.177 19.7012C106.177 23.3817 108.942 25.9662 112.608 25.9662C116.273 25.9662 119.037 23.3576 119.037 19.7002C119.037 16.1429 116.332 13.5604 112.608 13.5604ZM112.608 23.1713C110.472 23.1713 109.499 21.3721 109.499 19.7002C109.499 18.0513 110.472 16.2772 112.608 16.2772C114.742 16.2772 115.715 18.0513 115.715 19.7002C115.715 21.3721 114.743 23.1713 112.608 23.1713ZM153.546 18.3949C151.861 17.9972 151.267 17.7838 151.267 17.1096C151.267 16.18 152.459 15.9756 153 15.9756C154.016 15.9756 155.164 16.5747 155.594 17.1437L157.526 15.3145C156.632 14.2065 154.876 13.5614 153.023 13.5614C150.653 13.5614 148.164 14.7385 148.164 17.3681C148.164 19.6271 149.956 20.3083 151.711 20.724C153.558 21.1487 154.218 21.4593 154.218 22.1946C154.218 23.2795 152.973 23.4568 152.544 23.4568C151.472 23.4568 150.231 22.8497 149.562 22.0644L147.574 24.0559C148.66 25.245 150.519 25.9612 152.425 25.9612C155.625 25.9612 157.526 24.4536 157.526 21.9662C157.526 19.586 155.201 18.7866 153.546 18.3949ZM147.355 13.89H143.132L138.905 18.7515H138.832V7.43359H135.557V25.6026H138.832V19.8254H138.905L143.291 25.6036H147.6L142.502 19.2023L147.356 13.889L147.355 13.89ZM98.7984 13.5604C97.3008 13.5604 96.1978 14.2075 95.156 15.1712H95.0939V7.4346H91.8201V25.6036H94.9516V23.9477H95.0007C95.739 25.1438 97.2056 25.9332 98.7273 25.9332C102.107 25.9332 104.67 23.3115 104.67 19.6992C104.67 16.1419 102.137 13.5594 98.7984 13.5594V13.5604ZM98.1543 23.1713C96.1788 23.1713 94.9987 21.4302 94.9987 19.7473C94.9987 18.0783 96.2058 16.2772 98.1543 16.2772C100.273 16.2772 101.328 18.0513 101.328 19.7002C101.328 21.4252 100.18 23.1713 98.1543 23.1713ZM90.5879 13.89H86.3655L82.1381 18.7515H82.0649V7.43359H78.7892V25.6026H82.0649V19.8254H82.1371L86.5238 25.6036H90.8324L85.7354 19.2023L90.5879 13.889V13.89ZM126.997 13.5604C123.27 13.5604 120.566 16.1429 120.566 19.7012C120.566 23.3817 123.331 25.9662 126.997 25.9662C130.662 25.9662 133.426 23.3576 133.426 19.7002C133.426 16.1429 130.722 13.5604 126.997 13.5604ZM126.997 23.1713C124.861 23.1713 123.889 21.3721 123.889 19.7002C123.889 18.0513 124.86 16.2772 126.997 16.2772C129.132 16.2772 130.105 18.0513 130.105 19.7002C130.105 21.3721 129.132 23.1713 126.997 23.1713Z" fill="white"/>
</g>
<g id="Group_3">
<path id="Vector_2" d="M13.9925 27.877C21.6103 27.877 27.7858 21.7764 27.7858 14.251C27.7858 6.72556 21.6103 0.625 13.9925 0.625C6.37468 0.625 0.199219 6.72556 0.199219 14.251C0.199219 21.7764 6.37468 27.877 13.9925 27.877Z" fill="#2CA01C"/>
<path id="Vector_3" d="M4.02734 14.252C4.02734 17.1782 6.42857 19.5514 9.39179 19.5514H10.1581V17.5819H9.39179C7.53251 17.5819 6.01985 16.0883 6.01985 14.252C6.01985 12.4148 7.53251 10.9212 9.39179 10.9212H11.233V21.2163C11.233 22.3032 12.1246 23.1838 13.2255 23.1838V8.95271H9.39179C6.42857 8.95271 4.02734 11.3249 4.02734 14.252ZM18.59 8.95271H17.8236V10.9222H18.59C20.4493 10.9222 21.9619 12.4158 21.9619 14.252C21.9619 16.0893 20.4493 17.5829 18.59 17.5829H16.7487V7.28778C16.7487 6.20086 15.8572 5.32031 14.7552 5.32031V19.5514H18.59C21.5522 19.5514 23.9544 17.1792 23.9544 14.252C23.9544 11.3269 21.5522 8.95271 18.59 8.95271Z" fill="white"/>
</g>
<path id="Vector_4" d="M44.9713 3.72988C45.4751 3.72988 45.8829 3.32717 45.8829 2.82929C45.8821 2.71037 45.8579 2.59276 45.8116 2.48319C45.7654 2.37362 45.698 2.27423 45.6134 2.19069C45.5287 2.10716 45.4284 2.04112 45.3183 1.99634C45.2081 1.95156 45.0902 1.92892 44.9713 1.92971C44.8523 1.92892 44.7344 1.95156 44.6242 1.99634C44.5141 2.04112 44.4138 2.10716 44.3291 2.19069C44.2445 2.27423 44.1771 2.37362 44.1309 2.48319C44.0846 2.59276 44.0604 2.71037 44.0596 2.82929C44.0596 3.32717 44.4684 3.72988 44.9713 3.72988ZM39.5317 4.33695C38.6401 4.33695 37.9238 4.87089 37.6604 5.46694H37.6343V4.51125H36.2018V10.4707H37.7105V7.19197C37.7105 6.39857 38.1633 5.57913 39.1179 5.57913C40.0857 5.57913 40.2499 6.46068 40.2499 7.16793V10.4707H41.7576V6.74519C41.7576 5.52904 41.1034 4.33695 39.5317 4.33695ZM33.1484 10.4707H34.6561V4.51025H33.1484V10.4707ZM60.5767 3.72988C61.0806 3.72988 61.4883 3.32717 61.4883 2.82929C61.4875 2.71037 61.4633 2.59276 61.4171 2.48319C61.3709 2.37362 61.3035 2.27423 61.2188 2.19069C61.1342 2.10716 61.0339 2.04112 60.9237 1.99634C60.8136 1.95156 60.6957 1.92892 60.5767 1.92971C60.4578 1.92892 60.3399 1.95156 60.2297 1.99634C60.1195 2.04112 60.0193 2.10716 59.9346 2.19069C59.85 2.27423 59.7826 2.37362 59.7364 2.48319C59.6901 2.59276 59.6659 2.71037 59.6651 2.82929C59.6651 3.32717 60.0738 3.72988 60.5767 3.72988ZM58.1324 4.50725V5.82757H59.8234V10.4707H61.3311V5.82757H63.022V4.50725H58.1324ZM55.5669 10.4707H57.0756V4.51025H55.5669V10.4707ZM42.5259 5.82757H44.2169V10.4707H45.7256V5.82757H47.4166V4.50725H42.5259V5.82757ZM52.5135 7.78902C52.5135 8.58342 52.0617 9.40186 51.1071 9.40186C50.1384 9.40186 49.9751 8.52031 49.9751 7.81307V4.51125H48.4664V8.23581C48.4664 9.45295 49.1206 10.644 50.6913 10.644C51.5839 10.644 52.3012 10.1101 52.5646 9.51406H52.5897V10.4707H54.0222V4.51025H52.5145L52.5135 7.78902Z" fill="white"/>
</g>
</g>
</g>
</g>
<defs>
<clipPath id="bgblur_0_0_1_clip_path" transform="translate(40 40)"><rect x="-16" y="-16" width="194.286" height="64" rx="20"/>
</clipPath></defs>
</svg>
